<svg width="264" height="300" viewBox="0 0 264 300" fill="none" xmlns="http://www.w3.org/2000/svg">
<rect y="36" width="264" height="34" rx="17" fill="#C4C4C4"/>
<path fill-rule="evenodd" clip-rule="evenodd" d="M96 0C81.6406 0 70 11.6406 70 26V36H88V24C88 21.2386 90.2386 19 93 19H169C171.761 19 174 21.2386 174 24V36H193V26C193 11.6406 181.359 0 167 0H96Z" fill="#C4C4C4"/>
<path fill-rule="evenodd" clip-rule="evenodd" d="M245 89H17L32.6372 275.5C33.4876 289.269 44.9022 300 58.6971 300H206.465C218.878 300 229.543 291.189 231.885 279L245 89ZM131 105C126.029 105 122 109.029 122 114V256C122 260.971 126.029 265 131 265C135.971 265 140 260.971 140 256V114C140 109.029 135.971 105 131 105ZM173.903 113.988C174.163 109.024 178.398 105.211 183.361 105.471C188.325 105.731 192.138 109.966 191.878 114.93L184.446 256.735C184.186 261.699 179.951 265.512 174.988 265.252C170.024 264.992 166.211 260.757 166.471 255.793L173.903 113.988ZM78.9877 105.471C74.0239 105.731 70.2109 109.966 70.471 114.93L77.9027 256.735C78.1629 261.699 82.3977 265.512 87.3614 265.252C92.3252 264.992 96.1382 260.757 95.8781 255.793L88.4464 113.988C88.1862 109.024 83.9514 105.211 78.9877 105.471Z" fill="#C4C4C4"/>
</svg>
